HIERARCHY
ROOT SpineBase
{
  OFFSET 0.000000 0.000000 0.000000
  CHANNELS 6 Xposition Yposition Zposition Zrotation Xrotation Yrotation
  JOINT SpineMid
  {
    OFFSET 0.000000 30.732719 0.000000
    CHANNELS 3 Zrotation Xrotation Yrotation
    JOINT SpineShoulder
    {
      OFFSET 0.164652 22.878439 -0.753169
      CHANNELS 3 Zrotation Xrotation Yrotation
      JOINT Neck
      {
        OFFSET 0.109309 7.579603 -0.569699
        CHANNELS 3 Zrotation Xrotation Yrotation
        JOINT Head
        {
          OFFSET -7.041891 11.856413 1.452863
          CHANNELS 3 Zrotation Xrotation Yrotation
          End Site
          {
            OFFSET 0 0 0
          }
        }
      }
      JOINT ShoulderLeft
      {
        OFFSET -13.442357 -2.859481 10.039049
        CHANNELS 3 Zrotation Xrotation Yrotation
        JOINT ElbowLeft
        {
          OFFSET -0.740315 -24.972400 -0.099641
          CHANNELS 3 Zrotation Xrotation Yrotation
          JOINT WristLeft
          {
            OFFSET 0.090524 -24.933088 -1.308557
            CHANNELS 3 Zrotation Xrotation Yrotation
            JOINT HandLeft
            {
              OFFSET -0.100158 -5.227384 -0.207566
              CHANNELS 3 Zrotation Xrotation Yrotation
              JOINT HandTipLeft
              {
                OFFSET 1.488384 -6.594497 -3.025432
                CHANNELS 3 Zrotation Xrotation Yrotation
                End Site
                {
                  OFFSET 0 0 0
                }
              }
              JOINT ThumbLeft
              {
                OFFSET -1.870066 -1.875520 -1.747380
                CHANNELS 3 Zrotation Xrotation Yrotation
                End Site
                {
                  OFFSET 0 0 0
                }
              }
            }
          }
        }
      }
      JOINT ShoulderRight
      {
        OFFSET 10.558306 -4.071736 -12.898661
        CHANNELS 3 Zrotation Xrotation Yrotation
        JOINT ElbowRight
        {
          OFFSET 5.831852 -24.190297 -5.072434
          CHANNELS 3 Zrotation Xrotation Yrotation
          JOINT WristRight
          {
            OFFSET -6.404515 -23.584318 -3.312090
            CHANNELS 3 Zrotation Xrotation Yrotation
            JOINT HandRight
            {
              OFFSET -1.528902 -5.308443 0.655239
              CHANNELS 3 Zrotation Xrotation Yrotation
              JOINT HandTipRight
              {
                OFFSET -1.916627 -5.348903 -1.428258
                CHANNELS 3 Zrotation Xrotation Yrotation
                End Site
                {
                  OFFSET 0 0 0
                }
              }
              JOINT ThumbRight
              {
                OFFSET -2.546670 -0.765544 -3.914188
                CHANNELS 3 Zrotation Xrotation Yrotation
                End Site
                {
                  OFFSET 0 0 0
                }
              }
            }
          }
        }
      }
    }
  }
  JOINT HipLeft
  {
    OFFSET -4.799716 0.076556 1.314114
    CHANNELS 3 Zrotation Xrotation Yrotation
    JOINT KneeLeft
    {
      OFFSET 4.661698 -35.518923 2.731062
      CHANNELS 3 Zrotation Xrotation Yrotation
      JOINT AnkleLeft
      {
        OFFSET 9.531944 -35.569613 2.615198
        CHANNELS 3 Zrotation Xrotation Yrotation
        JOINT FootLeft
        {
          OFFSET -3.642750 -6.355683 -7.082357
          CHANNELS 3 Zrotation Xrotation Yrotation
          End Site
          {
            OFFSET 0 0 0
          }
        }
      }
    }
  }
  JOINT HipRight
  {
    OFFSET 5.741331 1.563604 -8.246856
    CHANNELS 3 Zrotation Xrotation Yrotation
    JOINT KneeRight
    {
      OFFSET 9.667723 -36.323134 1.108746
      CHANNELS 3 Zrotation Xrotation Yrotation
      JOINT AnkleRight
      {
        OFFSET 7.662991 -33.063257 3.179302
        CHANNELS 3 Zrotation Xrotation Yrotation
        JOINT FootRight
        {
          OFFSET -1.514884 -8.142296 -5.105736
          CHANNELS 3 Zrotation Xrotation Yrotation
          End Site
          {
            OFFSET 0 0 0
          }
        }
      }
    }
  }
}
MOTION
Frames: 14
Frame Time: 0.033333
-46.503302 77.367663 346.718115 -0.000000 0.000000 42.208745 0.000000 -0.000000 -42.208745 -0.000000 0.000000 0.000000 -0.000000 0.000000 0.000000 0.000000 0.000000 0.000000 -0.000000 0.000000 0.000000 -0.000000 0.000000 0.000000 -0.000000 0.000000 0.000000 -0.000000 0.000000 0.000000 0.000000 0.000000 0.000000 0.000000 0.000000 0.000000 -0.000000 0.000000 0.000000 -0.000000 0.000000 0.000000 -0.000000 0.000000 0.000000 -0.000000 0.000000 0.000000 0.000000 0.000000 0.000000 0.000000 0.000000 0.000000 0.000000 -0.000000 -42.208745 -0.000000 0.000000 0.000000 -0.000000 0.000000 0.000000 0.000000 0.000000 0.000000 0.000000 -0.000000 -42.208745 -0.000000 0.000000 0.000000 -0.000000 0.000000 0.000000 0.000000 0.000000 0.000000
-46.429447 77.365811 346.774414 0.068156 -0.010655 42.423878 -0.043123 0.053844 -42.423852 -0.000000 0.000000 0.000000 -0.000000 0.000000 0.000000 0.000000 0.000000 0.000000 -0.000000 0.000000 0.000000 -0.000000 0.000000 0.000000 -0.184176 1.103035 -0.012044 0.184442 -1.102991 0.015592 0.000000 0.000000 0.000000 0.000000 0.000000 0.000000 -0.000000 0.000000 0.000000 -0.000000 0.000000 0.000000 -0.939163 0.437052 -0.237772 0.939908 -3.327410 1.292771 0.000000 0.000000 0.000000 0.000000 0.000000 0.000000 -0.043123 0.053844 -42.423852 -0.000000 0.000000 0.000000 -2.322598 3.702228 0.516318 0.000000 0.000000 0.000000 -0.043123 0.053844 -42.423852 -0.000000 0.000000 0.000000 -3.025576 -3.602200 2.509681 0.000000 0.000000 0.000000
-46.365123 77.365839 346.824392 0.136728 -0.032814 42.609313 -0.078415 0.116715 -42.609194 -0.000000 0.000000 0.000000 -0.000000 0.000000 0.000000 0.000000 0.000000 0.000000 -0.000000 0.000000 0.000000 0.535452 1.294897 -0.029434 -0.888437 0.479044 -0.005147 -0.607487 -2.765370 0.205673 0.000000 0.000000 0.000000 0.000000 0.000000 0.000000 -0.000000 0.000000 0.000000 -0.000000 0.000000 0.000000 -1.793420 0.801566 -0.438106 1.782723 -6.167384 2.431314 0.000000 0.000000 0.000000 0.000000 0.000000 0.000000 -0.078415 0.116715 -42.609194 -0.000000 0.000000 0.000000 -4.162376 6.268009 1.175951 0.000000 0.000000 0.000000 -0.078415 0.116715 -42.609194 -0.000000 0.000000 0.000000 -5.620415 -7.038772 4.626184 0.000000 0.000000 0.000000
-46.310331 77.367748 346.868047 0.205708 -0.066475 42.765001 -0.105884 0.188476 -42.764708 -0.000000 0.000000 0.000000 -0.000000 0.000000 0.000000 0.000000 0.000000 0.000000 -0.000000 0.000000 0.000000 0.737114 1.694707 -0.043400 -1.247759 0.354318 -0.003349 -0.991204 -3.300633 0.367596 0.000000 0.000000 0.000000 0.000000 0.000000 0.000000 -0.000000 0.000000 0.000000 -0.744128 -0.622884 0.269340 -1.802310 1.718095 -0.850644 2.496638 -8.545406 3.416596 0.000000 0.000000 0.000000 0.000000 0.000000 0.000000 -0.105884 0.188476 -42.764708 -0.000000 0.000000 0.000000 -5.618143 7.897015 1.918549 0.000000 0.000000 0.000000 -0.105884 0.188476 -42.764708 0.219524 1.004054 0.251999 -7.995360 -11.053434 5.906787 0.000000 0.000000 0.000000
-46.265070 77.371537 346.905380 0.275085 -0.111635 42.890884 -0.125564 0.269013 -42.890321 -0.000000 0.000000 0.000000 -0.000000 0.000000 0.000000 0.000000 0.000000 0.000000 -0.000000 0.000000 0.000000 0.894852 1.930119 -0.054981 -1.555659 0.016595 0.002745 -1.412786 -3.291022 0.580966 0.000000 0.000000 0.000000 0.000000 0.000000 0.000000 -0.000000 0.000000 0.000000 -0.949277 -0.705334 0.318572 -2.253880 2.005642 -1.017441 3.055157 -10.488970 4.249571 0.000000 0.000000 0.000000 0.000000 0.000000 0.000000 -0.125564 0.269013 -42.890321 -0.000000 0.000000 0.000000 -6.753456 8.717454 2.720045 0.000000 0.000000 0.000000 -0.125564 0.269013 -42.890321 0.275885 1.156279 0.291861 -9.611216 -13.684936 7.032044 0.000000 0.000000 0.000000
-46.229341 77.377207 346.936391 0.344851 -0.168285 42.986898 -0.137523 0.358231 -42.985962 -0.000000 0.000000 0.000000 -0.000000 0.000000 0.000000 0.000000 0.000000 0.000000 -0.000000 0.000000 0.000000 1.008722 2.001462 -0.063235 -1.815296 -0.531641 0.014023 -1.859886 -2.738455 0.854524 0.000000 0.000000 0.000000 0.000000 0.000000 0.000000 -0.000000 0.000000 0.000000 -1.134401 -0.725942 0.348639 -2.619418 2.142867 -1.131296 3.437005 -12.024886 4.931913 0.000000 0.000000 0.000000 0.000000 0.000000 0.000000 -0.137523 0.358231 -42.985962 -0.000000 0.000000 0.000000 -7.604825 8.793089 3.578470 0.000000 0.000000 0.000000 -0.137523 0.358231 -42.985962 0.324158 1.216865 0.309881 -10.627009 -15.555189 7.756257 0.000000 0.000000 0.000000
-46.204335 77.397639 346.869227 0.381478 -0.201188 42.874288 -0.142683 0.406993 -42.873112 -0.000000 0.000000 0.000000 -0.000000 0.000000 0.000000 0.000000 0.000000 0.000000 -0.000000 0.000000 0.000000 1.073626 2.242492 -0.069146 -2.375464 -3.087066 0.034405 -2.619105 -0.314609 1.497336 0.000000 0.000000 0.000000 0.000000 0.000000 0.000000 -0.000000 0.000000 0.000000 -1.296837 -0.499193 0.311275 -2.327894 2.657318 -1.283307 3.790035 -13.608770 5.431691 0.000000 0.000000 0.000000 0.000000 0.000000 0.000000 -0.142683 0.406993 -42.873112 -0.000000 0.000000 0.000000 -10.153389 9.464773 5.899112 0.000000 0.000000 0.000000 -0.142683 0.406993 -42.873112 0.371261 1.181955 0.305892 -11.905550 -17.469520 8.654265 0.000000 0.000000 0.000000
-46.225888 77.409269 346.883734 0.397534 -0.290658 43.041451 -0.092166 0.483755 -43.040053 -0.000000 0.000000 0.000000 -0.000000 0.000000 0.000000 0.000000 0.000000 0.000000 -0.000000 0.000000 0.000000 0.899420 1.790016 -0.054710 -3.414014 -4.104490 0.041373 -2.132215 2.390893 2.164702 0.000000 0.000000 0.000000 0.000000 0.000000 0.000000 -0.599467 0.496508 0.248087 -0.832372 -0.850012 0.036969 -2.755385 2.574608 -1.338400 2.702759 -14.427310 6.001036 0.000000 0.000000 0.000000 0.000000 0.000000 0.000000 -0.092166 0.483755 -43.040053 -0.000000 0.000000 0.000000 -9.757189 6.936902 6.719980 0.000000 0.000000 0.000000 -0.092166 0.483755 -43.040053 0.407512 1.045560 0.277815 -11.674489 -17.803905 8.657293 0.000000 0.000000 0.000000
-46.227639 77.412144 346.962598 0.489425 -0.395745 43.190381 -0.085986 0.623501 -43.188223 0.800646 -0.273242 0.066024 -0.800340 0.274138 -0.062200 0.000000 0.000000 0.000000 -0.800340 0.274138 -0.062200 1.085329 1.822609 -0.067551 -3.496590 -6.775780 0.042630 -1.372511 6.000845 2.045511 0.000000 0.000000 0.000000 0.000000 0.000000 0.000000 -1.540644 0.839568 0.236633 -0.806484 -0.869482 -0.007730 -3.087038 1.623659 -1.163698 2.410394 -15.500057 6.589238 0.000000 0.000000 0.000000 0.000000 0.000000 0.000000 -0.085986 0.623501 -43.188223 0.139118 0.796103 0.222646 -7.623160 1.674064 6.382063 0.000000 0.000000 0.000000 -0.085986 0.623501 -43.188223 0.429090 0.787592 0.220807 -10.014693 -16.403801 7.781652 0.000000 0.000000 0.000000
-46.178622 77.432719 347.045730 0.548471 -0.382201 43.690319 -0.132598 0.655219 -43.687732 0.990544 -0.167063 0.078308 -0.453685 0.889427 0.281400 0.000000 0.000000 0.000000 -0.990319 0.168392 -0.075408 0.942512 1.784903 -0.057619 -1.953009 -7.037654 0.091354 -4.656044 5.145103 2.931989 0.000000 0.000000 0.000000 0.000000 0.000000 0.000000 -1.898139 0.740549 0.260250 -0.708102 -0.837922 -0.044876 -3.784529 1.318160 -1.180311 2.958128 -15.715678 6.816898 0.000000 0.000000 0.000000 0.000000 0.000000 0.000000 -0.513886 1.630622 -43.695125 1.211054 0.530655 0.298296 -8.126167 1.271463 6.819157 0.000000 0.000000 0.000000 -0.567657 1.339661 -43.652365 0.787208 -0.194892 -0.026454 -6.398365 -13.350585 6.143379 0.000000 0.000000 0.000000
-46.168670 77.432494 347.149357 0.766750 -0.486910 43.563167 0.214691 -0.161261 -43.523647 0.390988 0.013003 0.074419 -0.783036 0.990047 0.129032 0.000000 0.000000 0.000000 -1.423571 0.445326 -0.107906 1.471995 -0.276566 -0.074716 -0.592580 -1.759729 0.097398 -9.453661 -0.869000 3.485289 0.000000 0.000000 0.000000 0.000000 0.000000 0.000000 -2.408421 1.113327 0.273177 -0.725628 -1.046782 -0.044691 -6.075052 4.692805 -2.171493 6.802081 -19.773211 8.548893 0.000000 0.000000 0.000000 0.000000 0.000000 0.000000 -0.687303 1.921510 -43.571256 1.401270 0.635469 0.339176 -8.423028 3.387574 5.841914 0.000000 0.000000 0.000000 -0.733388 1.838746 -43.486777 1.031322 -0.341436 -0.056182 -5.326745 -11.969118 5.318803 0.000000 0.000000 0.000000
-46.185973 77.405636 347.305603 1.100055 -0.677995 42.778517 0.259515 -0.478924 -42.712963 0.429673 -0.088499 0.106326 -2.042942 0.947146 -0.150394 0.000000 0.000000 0.000000 -2.042942 0.947146 -0.150394 2.101844 -2.896329 -0.067784 0.262377 4.901152 -0.119430 -12.755874 -6.946345 3.058050 0.000000 0.000000 0.000000 0.000000 0.000000 0.000000 -3.012656 1.694180 0.255420 -0.940279 -1.280032 0.001902 -6.735334 6.241006 -2.577275 7.091298 -20.594497 9.013422 0.000000 0.000000 0.000000 0.000000 0.000000 0.000000 -0.825999 2.272195 -42.777888 1.404470 0.653377 0.343680 -8.941136 7.194774 4.464145 0.000000 0.000000 0.000000 -0.796311 2.602749 -42.606659 1.249953 -0.695373 -0.138912 -3.798176 -8.717560 3.878019 0.000000 0.000000 0.000000
-46.288483 77.352609 347.481350 1.529184 -1.030563 41.455719 0.187232 -0.687132 -41.360823 0.326305 -0.155844 0.125959 -2.445603 1.585585 -0.172992 0.000000 0.000000 0.000000 -2.445603 1.585585 -0.172992 3.490122 -6.870871 0.001383 -0.309163 15.291320 -0.485779 -14.566915 -15.130201 1.425967 0.000000 0.000000 0.000000 0.000000 0.000000 0.000000 -3.524722 2.480416 0.307260 -1.160116 -1.561269 0.013615 -6.034443 6.597278 -2.669958 7.002284 -20.675643 8.970936 0.000000 0.000000 0.000000 0.000000 0.000000 0.000000 -0.464173 1.784608 -41.434735 0.022470 0.902761 0.243530 -8.876125 15.323202 1.221319 0.000000 0.000000 0.000000 -0.685506 3.368331 -41.183972 1.209484 -1.046124 -0.229770 -1.846842 -5.156486 2.087495 0.000000 0.000000 0.000000
-46.387498 77.300590 347.709271 2.024518 -1.441683 38.991364 0.255561 -1.075340 -38.851906 0.430307 -0.300995 0.175033 -4.559135 1.615651 -0.509446 0.000000 0.000000 0.000000 -3.319816 2.432739 -0.214426 5.427065 -10.485899 0.175976 -0.286815 25.095228 -1.255149 -16.973876 -22.596298 -0.601479 0.000000 0.000000 0.000000 0.000000 0.000000 0.000000 -4.235605 3.144552 0.193536 -1.420680 -1.414651 0.117857 -4.065213 5.047548 -2.224828 0.793811 -13.345043 6.250974 0.000000 0.000000 0.000000 0.000000 0.000000 0.000000 -0.667358 2.393982 -38.951945 0.059711 0.949838 0.258560 -9.117612 19.586629 -0.370031 0.000000 0.000000 0.000000 -0.725321 4.392469 -38.582963 1.291934 -1.525974 -0.348344 0.285288 -9.382634 1.681259 0.000000 0.000000 0.000000
